<svg xmlns="http://www.w3.org/2000/svg" width="49" height="49" viewBox="0 0 49 49">
  <g id="icon-br-2" transform="translate(-628 -3591)">
    <g id="Ellipse_8" data-name="Ellipse 8" transform="translate(628 3591)" fill="rgba(255,255,255,0.11)" stroke="#361a83" stroke-width="1">
      <circle cx="24.5" cy="24.5" r="24.5" stroke="none"/>
      <circle cx="24.5" cy="24.5" r="24" fill="none"/>
    </g>
    <g id="Group_52891" data-name="Group 52891" transform="translate(638 3601)">
      <path id="Path_824" data-name="Path 824" d="M14.5,29A14.5,14.5,0,1,1,29,14.5,14.516,14.516,0,0,1,14.5,29Zm0,0" fill="#fe0050"/>
      <path id="Path_825" data-name="Path 825" d="M256,0V29a14.5,14.5,0,0,0,0-29Zm0,0" transform="translate(-241.5)" fill="#e10555"/>
      <path id="Path_826" data-name="Path 826" d="M94.686,104.371a9.686,9.686,0,1,1,9.686-9.686A9.7,9.7,0,0,1,94.686,104.371Zm0,0" transform="translate(-80.186 -80.186)" fill="#d9e7f3"/>
      <path id="Path_827" data-name="Path 827" d="M256,85v19.371A9.686,9.686,0,0,0,256,85Zm0,0" transform="translate(-241.5 -80.186)" fill="#c8d4df"/>
      <path id="Path_828" data-name="Path 828" d="M179.588,184.176a4.588,4.588,0,1,1,4.588-4.588A4.593,4.593,0,0,1,179.588,184.176Zm0,0" transform="translate(-165.088 -165.088)" fill="#fe0050"/>
      <path id="Path_829" data-name="Path 829" d="M256,175v9.176A4.588,4.588,0,0,0,256,175Zm0,0" transform="translate(-241.5 -165.088)" fill="#e10555"/>
      <path id="Path_830" data-name="Path 830" d="M241.85,138.639a.85.85,0,0,1-.6-1.45l6.248-6.248a.85.85,0,0,1,1.2,1.2l-6.248,6.248A.846.846,0,0,1,241.85,138.639Zm0,0" transform="translate(-227.35 -123.289)" fill="#2d2d55"/>
      <path id="Path_831" data-name="Path 831" d="M252.843,135.086l-7.449,7.449a.849.849,0,0,0,1.2,0l6.248-6.248a.849.849,0,0,0,0-1.2Zm0,0" transform="translate(-231.495 -127.435)" fill="#0a0a48"/>
      <path id="Path_832" data-name="Path 832" d="M350.812,17.271l-.071,0-3.324-.28a.85.85,0,0,1-.775-.775l-.281-3.324a.85.85,0,0,1,.246-.672l3.6-3.6a.85.85,0,0,1,1.447.529l.22,2.609,2.609.22a.85.85,0,0,1,.529,1.447l-3.6,3.6a.85.85,0,0,1-.6.249Zm0,0" transform="translate(-326.739 -7.889)" fill="#ffc300"/>
      <path id="Path_833" data-name="Path 833" d="M363.3,68.388l-2.609-.22L355.7,73.16a.848.848,0,0,0,.529.246l3.324.28.071,0a.85.85,0,0,0,.6-.249l3.6-3.6a.849.849,0,0,0-.529-1.447Zm0,0" transform="translate(-335.556 -64.307)" fill="#fab400"/>
    </g>
  </g>
</svg>
