<svg xmlns="http://www.w3.org/2000/svg" width="49" height="49" viewBox="0 0 49 49">
  <g id="icon-br-3" transform="translate(-628 -3591)">
    <g id="Path_834" data-name="Path 834" transform="translate(628 3591)" fill="rgba(255,255,255,0.11)">
      <path d="M 24.5 48.5 C 21.25979995727539 48.5 18.11679077148438 47.86550903320312 15.15826988220215 46.61417007446289 C 12.30043029785156 45.40539932250977 9.733719825744629 43.67483901977539 7.529439926147461 41.47055816650391 C 5.325160026550293 39.26628112792969 3.594599962234497 36.69956970214844 2.385829925537109 33.84172821044922 C 1.134490013122559 30.88320922851562 0.5 27.74020004272461 0.5 24.5 C 0.5 21.25979995727539 1.134490013122559 18.11679077148438 2.385829925537109 15.15826988220215 C 3.594599962234497 12.30043029785156 5.325160026550293 9.733719825744629 7.529439926147461 7.529439926147461 C 9.733719825744629 5.325160026550293 12.30043029785156 3.594599962234497 15.15826988220215 2.385829925537109 C 18.11679077148438 1.134490013122559 21.25979995727539 0.5 24.5 0.5 C 27.74020004272461 0.5 30.88320922851562 1.134490013122559 33.84172821044922 2.385829925537109 C 36.69956970214844 3.594599962234497 39.26628112792969 5.325160026550293 41.47055816650391 7.529439926147461 C 43.67483901977539 9.733719825744629 45.40539932250977 12.30043029785156 46.61417007446289 15.15826988220215 C 47.86550903320312 18.11679077148438 48.5 21.25979995727539 48.5 24.5 C 48.5 27.74020004272461 47.86550903320312 30.88320922851562 46.61417007446289 33.84172821044922 C 45.40539932250977 36.69956970214844 43.67483901977539 39.26628112792969 41.47055816650391 41.47055816650391 C 39.26628112792969 43.67483901977539 36.69956970214844 45.40539932250977 33.84172821044922 46.61417007446289 C 30.88320922851562 47.86550903320312 27.74020004272461 48.5 24.5 48.5 Z" stroke="none"/>
      <path d="M 24.5 1 C 21.32707977294922 1 18.24959945678711 1.621200561523438 15.3530387878418 2.846340179443359 C 12.5547981262207 4.029888153076172 10.04151153564453 5.724468231201172 7.882991790771484 7.882991790771484 C 5.724468231201172 10.04151153564453 4.029888153076172 12.5547981262207 2.846340179443359 15.3530387878418 C 1.621200561523438 18.24959945678711 1 21.32707977294922 1 24.5 C 1 27.67292022705078 1.621200561523438 30.75040054321289 2.846340179443359 33.64694976806641 C 4.029888153076172 36.44519805908203 5.724468231201172 38.95848083496094 7.882991790771484 41.11701202392578 C 10.04151153564453 43.27552795410156 12.5547981262207 44.97010803222656 15.3530387878418 46.15365982055664 C 18.24959945678711 47.37879943847656 21.32707977294922 48 24.5 48 C 27.67292022705078 48 30.75040054321289 47.37879943847656 33.64694976806641 46.15365982055664 C 36.4451904296875 44.97010803222656 38.95848083496094 43.27552795410156 41.11701202392578 41.11701202392578 C 43.27552795410156 38.95848083496094 44.97010803222656 36.4451904296875 46.15365982055664 33.64694976806641 C 47.37879943847656 30.75040054321289 48 27.67292022705078 48 24.5 C 48 21.32707977294922 47.37879943847656 18.24959945678711 46.15365982055664 15.3530387878418 C 44.97010803222656 12.5547981262207 43.27552795410156 10.04151153564453 41.11701202392578 7.882991790771484 C 38.95848083496094 5.724468231201172 36.44519805908203 4.029888153076172 33.64694976806641 2.846340179443359 C 30.75040054321289 1.621200561523438 27.67292022705078 1 24.5 1 M 24.5 0 C 38.03096771240234 0 49 10.96902084350586 49 24.5 C 49 38.03096771240234 38.03096771240234 49 24.5 49 C 10.96902084350586 49 0 38.03096771240234 0 24.5 C 0 10.96902084350586 10.96902084350586 0 24.5 0 Z" stroke="none" fill="#361a83"/>
    </g>
    <g id="Group_52991" data-name="Group 52991" transform="translate(615.008 3600.584)">
      <path id="Path_949" data-name="Path 949" d="M232.619,319.733l-1.273,1.273a.9.9,0,0,1-1.273-1.273l1.273-1.273a.9.9,0,0,0,0-1.273l-1.17-1.17a.9.9,0,1,1,1.273-1.273l1.17,1.17A2.7,2.7,0,0,1,232.619,319.733Z" transform="translate(-193.844 -296.158)" fill="#713708"/>
      <path id="Path_950" data-name="Path 950" d="M166.782,358.928a1.8,1.8,0,0,1-2.546,0l-6.365-6.365,2.546-2.546,6.365,6.365A1.8,1.8,0,0,1,166.782,358.928Z" transform="translate(-126.097 -329.625)" fill="#994c0f"/>
      <path id="Path_951" data-name="Path 951" d="M31.724,261.753,35.67,265.7l-.076,2.469-4.455,4.455a2.727,2.727,0,0,1-3.844-.026l-2.546-2.546a2.677,2.677,0,0,1,.026-3.793l4.455-4.455Z" transform="translate(0 -246.502)" fill="#fe318f"/>
      <path id="Path_952" data-name="Path 952" d="M67.2,295.4l1.986,1.986-.076,2.469L64.65,304.31a2.727,2.727,0,0,1-3.844-.026l-1.247-1.247Z" transform="translate(-33.512 -278.189)" fill="#fd0f7f"/>
      <path id="Path_953" data-name="Path 953" d="M334.438,3.6a.9.9,0,0,1-.9-.9V.9a.9.9,0,1,1,1.8,0V2.7A.9.9,0,0,1,334.438,3.6Zm7.2,5.4h-1.8a.9.9,0,1,1,0-1.8h1.8a.9.9,0,0,1,0,1.8Zm-1.152-7.065a.891.891,0,0,1,0,1.273l-1.909,1.909a.9.9,0,0,1-1.273-1.273l1.909-1.909A.891.891,0,0,1,340.487,1.936Z" transform="translate(-291.528)" fill="#1bd9de"/>
      <path id="Path_954" data-name="Path 954" d="M123.086,49.13,132,58.04c.255.255.573,2.94.9,2.991l-2.508.522a19.519,19.519,0,0,0-9.636,5.181l-.216.216-6.365-6.365.216-.216a18.916,18.916,0,0,0,5.143-9.674l.522-2.609Z" transform="translate(-84.947 -45.284)" fill="#cae8f9"/>
      <path id="Path_955" data-name="Path 955" d="M101.478,334.774a.891.891,0,0,1,0,1.273L100.2,337.32a.9.9,0,0,1-1.273-1.273l1.273-1.273A.891.891,0,0,1,101.478,334.774Z" transform="translate(-70.34 -315.017)" fill="#e1e4fb"/>
      <path id="Path_956" data-name="Path 956" d="M178.979,142.467l4.455,4.455c.255.255.573,2.94.9,2.991l-2.508.522a19.519,19.519,0,0,0-9.636,5.181l-.216.216L168.8,152.65Z" transform="translate(-136.385 -134.166)" fill="#b7e0f6"/>
      <path id="Path_957" data-name="Path 957" d="M105.8,339.094a.891.891,0,0,1,0,1.273l-1.273,1.273a.891.891,0,0,1-1.273,0Z" transform="translate(-74.661 -319.337)" fill="#c5c9f7"/>
      <path id="Path_958" data-name="Path 958" d="M217.892,13.82l11.456,11.456a1.805,1.805,0,0,1,0,2.546,1.051,1.051,0,0,1-.28.178,1.682,1.682,0,0,1-1.362.267,1.6,1.6,0,0,1-.9-.445L215.346,16.366a1.847,1.847,0,0,1-.267-2.151,2.145,2.145,0,0,1,.267-.395A1.806,1.806,0,0,1,217.892,13.82Z" transform="translate(-179.753 -12.52)" fill="#fe318f"/>
      <path id="Path_959" data-name="Path 959" d="M324.272,120.62,330,126.348a1.806,1.806,0,0,1,0,2.546,1.051,1.051,0,0,1-.28.178,1.682,1.682,0,0,1-1.362.267,1.6,1.6,0,0,1-.9-.445l-5.728-5.728,2.546-2.546Z" transform="translate(-280.405 -113.592)" fill="#fd0f7f"/>
    </g>
  </g>
</svg>
